<svg viewBox="0 0 500 140" xmlns="http://www.w3.org/2000/svg"><rect width="500" height="140" fill="white"/><style>text{font-family:monospace;fill:black;}</style>
<text x="10" y="30" font-size="24">1632 contributions</text>
<rect x="10.0" y="92.3" width="6.3" height="27.7" fill="black"/>
<rect x="19.1" y="75.4" width="6.3" height="44.6" fill="black"/>
<rect x="28.1" y="76.9" width="6.3" height="43.1" fill="black"/>
<rect x="37.2" y="76.9" width="6.3" height="43.1" fill="black"/>
<rect x="46.2" y="78.5" width="6.3" height="41.5" fill="black"/>
<rect x="55.3" y="89.2" width="6.3" height="30.8" fill="black"/>
<rect x="64.3" y="76.9" width="6.3" height="43.1" fill="black"/>
<rect x="73.4" y="67.7" width="6.3" height="52.3" fill="black"/>
<rect x="82.5" y="67.7" width="6.3" height="52.3" fill="black"/>
<rect x="91.5" y="70.8" width="6.3" height="49.2" fill="black"/>
<rect x="100.6" y="80.0" width="6.3" height="40.0" fill="black"/>
<rect x="109.6" y="67.7" width="6.3" height="52.3" fill="black"/>
<rect x="118.7" y="72.3" width="6.3" height="47.7" fill="black"/>
<rect x="127.7" y="73.8" width="6.3" height="46.2" fill="black"/>
<rect x="136.8" y="83.1" width="6.3" height="36.9" fill="black"/>
<rect x="145.8" y="76.9" width="6.3" height="43.1" fill="black"/>
<rect x="154.9" y="83.1" width="6.3" height="36.9" fill="black"/>
<rect x="164.0" y="80.0" width="6.3" height="40.0" fill="black"/>
<rect x="173.0" y="70.8" width="6.3" height="49.2" fill="black"/>
<rect x="182.1" y="73.8" width="6.3" height="46.2" fill="black"/>
<rect x="191.1" y="80.0" width="6.3" height="40.0" fill="black"/>
<rect x="200.2" y="83.1" width="6.3" height="36.9" fill="black"/>
<rect x="209.2" y="66.2" width="6.3" height="53.8" fill="black"/>
<rect x="218.3" y="73.8" width="6.3" height="46.2" fill="black"/>
<rect x="227.4" y="70.8" width="6.3" height="49.2" fill="black"/>
<rect x="236.4" y="76.9" width="6.3" height="43.1" fill="black"/>
<rect x="245.5" y="80.0" width="6.3" height="40.0" fill="black"/>
<rect x="254.5" y="78.5" width="6.3" height="41.5" fill="black"/>
<rect x="263.6" y="70.8" width="6.3" height="49.2" fill="black"/>
<rect x="272.6" y="64.6" width="6.3" height="55.4" fill="black"/>
<rect x="281.7" y="64.6" width="6.3" height="55.4" fill="black"/>
<rect x="290.8" y="70.8" width="6.3" height="49.2" fill="black"/>
<rect x="299.8" y="76.9" width="6.3" height="43.1" fill="black"/>
<rect x="308.9" y="70.8" width="6.3" height="49.2" fill="black"/>
<rect x="317.9" y="58.5" width="6.3" height="61.5" fill="black"/>
<rect x="327.0" y="63.1" width="6.3" height="56.9" fill="black"/>
<rect x="336.0" y="53.8" width="6.3" height="66.2" fill="black"/>
<rect x="345.1" y="76.9" width="6.3" height="43.1" fill="black"/>
<rect x="354.2" y="70.8" width="6.3" height="49.2" fill="black"/>
<rect x="363.2" y="63.1" width="6.3" height="56.9" fill="black"/>
<rect x="372.3" y="76.9" width="6.3" height="43.1" fill="black"/>
<rect x="381.3" y="55.4" width="6.3" height="64.6" fill="black"/>
<rect x="390.4" y="75.4" width="6.3" height="44.6" fill="black"/>
<rect x="399.4" y="76.9" width="6.3" height="43.1" fill="black"/>
<rect x="408.5" y="84.6" width="6.3" height="35.4" fill="black"/>
<rect x="417.5" y="76.9" width="6.3" height="43.1" fill="black"/>
<rect x="426.6" y="81.5" width="6.3" height="38.5" fill="black"/>
<rect x="435.7" y="78.5" width="6.3" height="41.5" fill="black"/>
<rect x="444.7" y="58.5" width="6.3" height="61.5" fill="black"/>
<rect x="453.8" y="61.5" width="6.3" height="58.5" fill="black"/>
<rect x="462.8" y="78.5" width="6.3" height="41.5" fill="black"/>
<rect x="471.9" y="56.9" width="6.3" height="63.1" fill="black"/>
<rect x="480.9" y="40.0" width="6.3" height="80.0" fill="black"/>
</svg>